<?xml version="1.0" encoding="utf-8"?>
<!-- Generator: Adobe Illustrator 15.0.0, SVG Export Plug-In . SVG Version: 6.00 Build 0)  -->
<!DOCTYPE svg PUBLIC "-//W3C//DTD SVG 1.1//EN" "http://www.w3.org/Graphics/SVG/1.1/DTD/svg11.dtd">
<svg version="1.1" id="Capa_1" xmlns="http://www.w3.org/2000/svg" xmlns:xlink="http://www.w3.org/1999/xlink" x="0px" y="0px"
	 width="309.76px" height="94.318px" viewBox="21.12 -136.449 309.76 94.318" enable-background="new 21.12 -136.449 309.76 94.318"
	 xml:space="preserve">
<g>
	<g>
		<g>
			<path fill="#0096FF" d="M30.389-44.079c0.579,0,0.935,0.321,0.935,0.885c0,0.564-0.355,0.901-0.935,0.901h-5.876
				c-0.644,0-1.015-0.419-1.015-1.014v-9.081c0-0.596,0.371-1.014,1.031-1.014h5.844c0.58,0,0.951,0.339,0.951,0.901
				c0,0.564-0.371,0.902-0.951,0.902h-4.847v2.768h3.092c0.58,0,0.999,0.322,0.999,0.886c0,0.564-0.418,0.902-0.999,0.902h-3.092
				v2.962h4.862V-44.079z"/>
			<path fill="#0096FF" d="M39.181-45.385c0-0.9-0.757-1.271-2.818-1.786c-1.739-0.435-3.172-1.225-3.172-3.22
				c0-2.012,1.82-3.172,3.978-3.172c1.352,0,2.254,0.354,2.979,0.823c0.466,0.305,0.66,0.708,0.66,1.078
				c0,0.709-0.58,0.982-0.966,0.982c-0.37,0-0.596-0.129-0.854-0.274c-0.419-0.257-0.901-0.629-1.996-0.629
				c-1.208,0-1.723,0.58-1.723,1.176c0,0.789,0.805,1.192,2.671,1.659c1.611,0.435,3.333,1.063,3.333,3.285
				c0,1.803-1.448,3.332-4.267,3.332c-1.755,0-2.931-0.643-3.558-1.272c-0.258-0.241-0.546-0.595-0.546-0.966
				c0-0.772,0.643-1.014,0.948-1.014c0.307,0,0.547,0.114,0.789,0.291c0.644,0.515,1.29,0.981,2.577,0.981
				C38.247-44.113,39.181-44.514,39.181-45.385z"/>
			<path fill="#0096FF" d="M48.374-51.583c-1.932,0-3.138,1.529-3.138,3.785c0,2.173,1.224,3.686,3.3,3.686
				c1.175,0,1.884-0.483,2.64-1.368c0.177-0.194,0.402-0.291,0.66-0.291c0.516,0,0.87,0.516,0.87,0.918
				c0,0.258-0.064,0.531-0.307,0.837c-0.595,0.724-1.852,1.884-4.025,1.884c-3.09,0-5.217-2.253-5.217-5.683
				c0-3.413,2.126-5.747,5.217-5.747c2.399,0,3.721,1.384,4.106,1.948c0.176,0.274,0.258,0.58,0.258,0.823
				c0,0.66-0.547,0.965-0.951,0.965c-0.24,0-0.499-0.048-0.709-0.29C50.354-50.971,49.678-51.583,48.374-51.583z"/>
			<path fill="#0096FF" d="M62.107-52.387c0-0.596,0.385-1.014,1.014-1.014c0.597,0,1.014,0.419,1.014,1.014v5.765
				c0,2.688-1.739,4.491-4.571,4.491c-2.851,0-4.572-1.787-4.572-4.427v-5.828c0-0.596,0.418-1.014,1.014-1.014
				c0.595,0,1.014,0.418,1.014,1.014v5.521c0,1.836,0.854,2.753,2.545,2.753c1.69,0,2.543-0.934,2.543-2.818V-52.387z"/>
			<path fill="#0096FF" d="M73.796-44.079c0.58,0,0.935,0.321,0.935,0.885c0,0.564-0.354,0.901-0.935,0.901H67.92
				c-0.644,0-1.014-0.419-1.014-1.014v-9.081c0-0.596,0.371-1.014,1.031-1.014h5.845c0.579,0,0.949,0.339,0.949,0.901
				c0,0.564-0.37,0.902-0.949,0.902h-4.847v2.768h3.093c0.579,0,0.999,0.322,0.999,0.886c0,0.564-0.42,0.902-0.999,0.902h-3.093
				v2.962h4.862V-44.079z"/>
			<path fill="#0096FF" d="M77.935-42.292c-0.659,0-1.03-0.419-1.03-1.014v-9.081c0-0.596,0.419-1.014,1.014-1.014
				c0.595,0,1.014,0.419,1.014,1.014v8.308h4.332c0.579,0,0.998,0.321,0.998,0.885c0,0.563-0.419,0.901-0.998,0.901L77.935-42.292
				L77.935-42.292z"/>
			<path fill="#0096FF" d="M92.875-44.788h-4.603l-0.741,1.868c-0.194,0.466-0.483,0.627-0.935,0.627
				c-0.596,0-0.998-0.354-0.998-0.885c0-0.241,0.048-0.402,0.176-0.71l3.672-8.629c0.24-0.563,0.578-0.886,1.158-0.886
				s0.934,0.322,1.176,0.886l3.67,8.629c0.113,0.242,0.161,0.452,0.161,0.612c0,0.596-0.466,0.982-1.062,0.982
				c-0.499,0-0.789-0.241-0.999-0.772L92.875-44.788z M88.931-46.462h3.284l-1.643-4.153L88.931-46.462z"/>
			<path fill="#0096FF" d="M105.08-53.402c3.026,0,5.006,2.206,5.006,5.506c0,3.269-2.062,5.603-5.006,5.603h-3.156
				c-0.725,0-1.014-0.387-1.014-1.014v-9.081c0-0.628,0.322-1.014,1.031-1.014H105.08z M104.952-44.079
				c1.98,0,3.06-1.513,3.06-3.816c0-2.318-1.095-3.702-3.14-3.702h-1.931v7.519H104.952z"/>
			<path fill="#0096FF" d="M119.395-44.079c0.579,0,0.934,0.321,0.934,0.885c0,0.564-0.354,0.901-0.934,0.901h-5.877
				c-0.644,0-1.014-0.419-1.014-1.014v-9.081c0-0.596,0.37-1.014,1.03-1.014h5.844c0.58,0,0.95,0.339,0.95,0.901
				c0,0.564-0.37,0.902-0.95,0.902h-4.847v2.768h3.092c0.579,0,0.999,0.322,0.999,0.886c0,0.564-0.42,0.902-0.999,0.902h-3.092
				v2.962h4.863V-44.079z"/>
			<path fill="#0096FF" d="M133.161-44.079c0.579,0,0.934,0.321,0.934,0.885c0,0.564-0.354,0.901-0.934,0.901h-5.876
				c-0.643,0-1.014-0.419-1.014-1.014v-9.081c0-0.596,0.371-1.014,1.029-1.014h5.845c0.579,0,0.95,0.339,0.95,0.901
				c0,0.564-0.371,0.902-0.95,0.902h-4.846v2.768h3.09c0.58,0,0.999,0.322,0.999,0.886c0,0.564-0.419,0.902-0.999,0.902h-3.09v2.962
				h4.862V-44.079z"/>
			<path fill="#0096FF" d="M141.951-45.385c0-0.9-0.757-1.271-2.817-1.786c-1.739-0.435-3.172-1.225-3.172-3.22
				c0-2.012,1.819-3.172,3.977-3.172c1.354,0,2.254,0.354,2.979,0.823c0.466,0.305,0.661,0.708,0.661,1.078
				c0,0.709-0.58,0.982-0.967,0.982c-0.37,0-0.596-0.129-0.853-0.274c-0.419-0.257-0.902-0.629-1.998-0.629
				c-1.206,0-1.722,0.58-1.722,1.176c0,0.789,0.805,1.192,2.673,1.659c1.609,0.435,3.333,1.063,3.333,3.285
				c0,1.803-1.448,3.332-4.266,3.332c-1.756,0-2.931-0.643-3.559-1.272c-0.258-0.241-0.547-0.595-0.547-0.966
				c0-0.772,0.644-1.014,0.951-1.014c0.306,0,0.547,0.114,0.789,0.291c0.644,0.515,1.288,0.981,2.577,0.981
				C141.018-44.113,141.951-44.514,141.951-45.385z"/>
			<path fill="#0096FF" d="M150.404-53.402c2.56,0,4.153,1.498,4.153,3.849c0,2.399-1.659,3.847-4.219,3.847h-1.947v2.399
				c0,0.596-0.419,1.014-1.014,1.014c-0.595,0-1.015-0.419-1.015-1.014v-9.081c0-0.596,0.419-1.014,1.015-1.014H150.404z
				 M150.339-47.51c1.417,0,2.142-0.805,2.142-2.043c0-1.337-0.757-2.044-2.172-2.044h-1.917v4.088H150.339z"/>
			<path fill="#0096FF" d="M162.448-44.788h-4.605l-0.741,1.868c-0.193,0.466-0.484,0.627-0.934,0.627
				c-0.597,0-0.999-0.354-0.999-0.885c0-0.241,0.048-0.402,0.177-0.71l3.67-8.629c0.241-0.563,0.579-0.886,1.159-0.886
				s0.934,0.322,1.176,0.886l3.67,8.629c0.112,0.242,0.161,0.452,0.161,0.612c0,0.596-0.466,0.982-1.062,0.982
				c-0.499,0-0.789-0.241-0.999-0.772L162.448-44.788z M158.502-46.462h3.284l-1.642-4.153L158.502-46.462z"/>
			<path fill="#0096FF" d="M174.04-52.403c0-0.628,0.434-0.999,1.014-0.999c0.564,0,1.014,0.371,1.014,0.999v9.128
				c0,0.564-0.338,0.982-0.966,0.982c-0.386,0-0.659-0.129-0.935-0.467l-4.782-6.471v5.957c0,0.628-0.434,0.982-1.014,0.982
				c-0.579,0-1.014-0.354-1.014-0.982v-9.001c0-0.596,0.275-1.127,0.999-1.127c0.322,0,0.627,0.129,0.869,0.467l4.813,6.778
				L174.04-52.403L174.04-52.403z M172.735-56.331c0.274,0,0.452-0.081,0.661-0.339c0.112-0.145,0.257-0.29,0.499-0.29
				c0.37,0,0.659,0.321,0.659,0.772c0,0.339-0.096,0.611-0.307,0.822c-0.305,0.37-0.691,0.564-1.126,0.564
				c-1.127,0-1.529-0.645-2.334-0.645c-0.386,0-0.612,0.162-0.805,0.402c-0.128,0.145-0.29,0.259-0.597,0.259
				c-0.385,0-0.627-0.307-0.627-0.693c0-0.177,0.08-0.467,0.29-0.709c0.338-0.402,0.756-0.724,1.514-0.724
				C171.577-56.911,171.962-56.331,172.735-56.331z"/>
			<path fill="#0096FF" d="M188.997-47.847c0,3.413-2.143,5.715-5.265,5.715c-3.09,0-5.248-2.302-5.248-5.715
				c0-3.428,2.158-5.715,5.248-5.715C186.854-53.563,188.997-51.275,188.997-47.847z M180.562-47.847
				c0,2.206,1.257,3.735,3.171,3.735c1.948,0,3.188-1.529,3.188-3.735c0-2.221-1.257-3.735-3.188-3.735
				S180.562-50.069,180.562-47.847z"/>
			<path fill="#0096FF" d="M192.443-42.292c-0.66,0-1.029-0.419-1.029-1.014v-9.081c0-0.596,0.418-1.014,1.013-1.014
				s1.013,0.419,1.013,1.014v8.308h4.332c0.579,0,1,0.321,1,0.885c0,0.563-0.421,0.901-1,0.901L192.443-42.292L192.443-42.292z"/>
		</g>
		<g>
			<g>
				<path fill="#0096FF" d="M101.725-67.804c0.196,0,0.386-0.015,0.572-0.042c0.634-0.094,1.255,0.247,1.513,0.833l0.001,0.001
					c0.167,0.38,0.172,0.812,0.012,1.194c-0.159,0.383-0.469,0.683-0.858,0.832c-0.936,0.359-1.999,0.514-3.196,0.514
					c-3.55,0-6.159-1.958-6.159-5.724c0-3.986,3.188-5.942,7.572-5.942c1.558,0,2.644,0.145,3.804,0.435v-1.813
					c0-1.738-0.942-2.644-3.478-2.644c-2.971,0-3.515,1.485-4.928,1.485c-0.978,0-1.595-0.796-1.595-1.811v-0.109
					c0-1.159,0.471-1.92,1.848-2.464c1.413-0.543,3.225-0.942,5.507-0.942c5.254,0,7.936,1.74,7.936,6.122v10.689
					c0,1.812-0.616,2.681-2.321,2.681h-0.107c-2.899,0-2.863-3.459-2.863-4.745v-3.624c-0.833-0.146-1.74-0.218-2.718-0.218
					c-2.137,0-3.515,0.761-3.515,2.609C98.754-68.639,99.95-67.804,101.725-67.804z"/>
			</g>
			<g>
				<path fill="#0096FF" d="M196.675-67.804c0.196,0,0.385-0.015,0.571-0.042c0.635-0.094,1.254,0.247,1.514,0.834
					c0.166,0.38,0.172,0.812,0.013,1.194c-0.159,0.383-0.47,0.683-0.856,0.832c-0.938,0.359-2,0.514-3.197,0.514
					c-3.551,0-6.16-1.958-6.16-5.724c0-3.986,3.188-5.942,7.572-5.942c1.559,0,2.645,0.145,3.805,0.435v-1.813
					c0-1.738-0.943-2.644-3.479-2.644c-2.971,0-3.515,1.485-4.928,1.485c-0.979,0-1.595-0.796-1.595-1.811v-0.109
					c0-1.159,0.472-1.92,1.849-2.464c1.412-0.543,3.225-0.942,5.507-0.942c5.253,0,7.935,1.74,7.935,6.122v10.689
					c0,1.812-0.616,2.681-2.319,2.681h-0.108c-2.896,0-2.861-3.459-2.861-4.745v-3.624c-0.834-0.146-1.74-0.218-2.719-0.218
					c-2.137,0-3.514,0.761-3.514,2.609C193.704-68.639,194.899-67.804,196.675-67.804z"/>
			</g>
			<g>
				<path fill="#0096FF" d="M293.834-67.804c0.195,0,0.386-0.015,0.571-0.042c0.636-0.094,1.256,0.247,1.514,0.833v0.001
					c0.167,0.38,0.171,0.812,0.013,1.194c-0.16,0.384-0.469,0.683-0.857,0.832c-0.938,0.359-1.999,0.514-3.196,0.514
					c-3.551,0-6.159-1.958-6.159-5.724c0-3.986,3.188-5.942,7.57-5.942c1.559,0,2.646,0.145,3.805,0.435v-1.813
					c0-1.738-0.941-2.644-3.479-2.644c-2.971,0-3.514,1.485-4.928,1.485c-0.978,0-1.594-0.796-1.594-1.811v-0.109
					c0-1.159,0.471-1.92,1.848-2.464c1.413-0.543,3.225-0.942,5.508-0.942c5.252,0,7.935,1.74,7.935,6.122v10.689
					c0,1.812-0.616,2.681-2.319,2.681h-0.108c-2.897,0-2.862-3.459-2.862-4.745v-3.624c-0.833-0.146-1.74-0.218-2.719-0.218
					c-2.137,0-3.513,0.761-3.513,2.609C290.862-68.639,292.059-67.804,293.834-67.804z"/>
			</g>
			<path fill="#0096FF" d="M33.221-64.398c-7.318,0-12.101-4.784-12.101-12.899c0-8.116,5.181-13.043,12.536-13.043
				c2.246,0,3.984,0.29,5.471,0.942c1.376,0.616,2.028,1.45,2.028,2.753v0.108c0,1.341-0.796,2.173-1.884,2.173
				c-1.595,0-2.5-1.883-5.725-1.883c-4.166,0-6.63,3.079-6.63,8.73c0,6.16,2.21,9.058,6.558,9.058c4.021,0,4.383-2.499,6.159-2.499
				c1.159,0,1.884,0.797,1.884,1.992v0.181c0,1.341-0.688,2.319-2.391,3.188C37.713-64.87,35.431-64.398,33.221-64.398z"/>
			<path fill="#0096FF" d="M52.964-64.435c-5.363,0-9.71-3.587-9.71-9.674c0-6.122,4.347-9.89,9.71-9.89
				c5.362,0,9.709,3.768,9.709,9.89C62.674-68.022,58.326-64.435,52.964-64.435z M52.964-68.203c2.572,0,4.347-1.775,4.347-5.87
				c0-4.131-1.776-6.159-4.347-6.159c-2.573,0-4.347,2.028-4.347,6.159C48.617-69.978,50.392-68.203,52.964-68.203z"/>
			<path fill="#0096FF" d="M71.115-64.471c-1.995,0-3.515-0.217-4.711-0.688c-1.449-0.58-2.029-1.376-2.029-2.681v-0.072
				c0-1.195,0.616-1.956,1.704-1.956c1.267,0,1.847,1.521,4.782,1.521c2.138,0,3.261-0.58,3.261-1.775
				c0-1.159-0.688-1.704-3.37-2.03c-4.166-0.506-6.305-2.064-6.305-5.797c0-3.839,2.863-5.978,7.536-5.978
				c1.776,0,3.116,0.181,4.203,0.58c1.485,0.543,1.92,1.34,1.92,2.428v0.144c0,1.269-0.652,1.922-1.631,1.922
				c-1.232,0-2.101-1.195-4.456-1.195c-2.101,0-2.862,0.615-2.862,1.702c0,0.979,0.87,1.486,3.478,1.812
				c4.528,0.579,6.413,2.065,6.413,5.906C79.048-66.899,76.621-64.471,71.115-64.471z"/>
			<path fill="#0096FF" d="M82.053-80.159c-1.16,0-1.74-0.652-1.74-1.739v-0.072c0-1.087,0.58-1.739,1.74-1.739h0.652v-2.646
				c0-1.593,0.978-2.607,2.644-2.607h0.073c1.667,0,2.572,1.015,2.572,2.607v2.646h2.283c1.159,0,1.74,0.651,1.74,1.739v0.072
				c0,1.086-0.58,1.739-1.74,1.739h-2.283v9.746c0,1.739,0.507,2.247,2.102,2.319c1.412,0.072,1.92,0.543,1.92,1.522v0.144
				c0,1.051-0.435,1.668-1.631,1.884c-0.58,0.109-1.123,0.146-1.921,0.146c-3.55,0-5.76-1.45-5.76-5.398v-10.362H82.053z"/>
			<path fill="#0096FF" d="M183.344-88.056c0.471-1.377,1.377-2.174,2.573-2.174h0.108c1.812,0,2.717,1.449,2.102,3.224
				l-6.811,19.528c-0.834,2.355-1.958,2.972-3.77,2.972h-0.217c-1.812,0-2.935-0.616-3.768-2.972l-6.63-19.093
				c-0.688-2.029,0.399-3.659,2.5-3.659h0.145c1.375,0,2.283,0.906,2.826,2.499l5.362,16.376h0.072L183.344-88.056z"/>
			<path fill="#0096FF" d="M214.461-86.464v19.349c0,1.703-1.051,2.608-2.609,2.608h-0.072c-1.557,0-2.607-0.906-2.607-2.608
				v-20.435c0-1.738,0.724-2.68,2.5-2.68h0.107C213.592-90.231,214.461-89.108,214.461-86.464z"/>
			<path fill="#0096FF" d="M243.479-78.891v11.776c0,1.703-1.051,2.608-2.609,2.608h-0.071c-1.558,0-2.608-0.906-2.608-2.608
				v-14.095c0-1.811,0.761-2.681,2.5-2.681h0.108c1.304,0,2.173,0.616,2.499,2.282c1.776-1.339,4.457-2.391,7.029-2.391
				c2.754,0,5.109,1.051,5.109,5.326v11.559c0,1.703-1.051,2.608-2.609,2.608h-0.072c-1.559,0-2.609-0.906-2.609-2.608v-10.219
				c0-1.884-0.723-2.427-2.354-2.427C246.159-79.761,244.674-79.325,243.479-78.891z"/>
			<path fill="#0096FF" d="M268.113-64.435c-6.196,0-9.854-3.623-9.854-9.71c0-6.123,4.346-9.854,10.106-9.854
				c1.774,0,3.044,0.181,4.167,0.58c1.375,0.471,1.92,1.268,1.92,2.5v0.108c0,1.341-0.688,1.994-1.631,1.994
				c-1.268,0-1.92-1.304-4.456-1.304c-2.753,0-4.746,2.029-4.746,6.014c0,4.094,1.884,5.833,4.601,5.833
				c2.754,0,3.37-1.412,4.565-1.412c1.05,0,1.632,0.651,1.632,1.92v0.037c0,1.195-0.616,2.101-2.029,2.644
				C271.266-64.653,269.672-64.435,268.113-64.435z"/>
			<path fill="#0096FF" d="M280.104-85.195c-1.594,0-2.898-1.232-2.898-2.79c0-1.559,1.305-2.827,2.898-2.827
				s2.863,1.269,2.863,2.827C282.967-86.428,281.697-85.195,280.104-85.195z M282.714-67.115c0,1.703-1.052,2.608-2.61,2.608h-0.072
				c-1.56,0-2.609-0.906-2.609-2.608v-14.095c0-1.811,0.725-2.681,2.5-2.681h0.109c1.775,0,2.683,1.124,2.683,3.768V-67.115z"/>
			<g>
				<path fill="#0096FF" d="M128.46-68.095c0.381,0,0.734-0.034,1.08-0.106c0.676-0.144,1.357,0.218,1.617,0.859
					c0.351,0.863-0.042,1.848-0.89,2.237c-0.959,0.438-2.078,0.707-3.328,0.707c-4.275,0-7.608-3.153-7.608-9.457
					c0-7.463,4.058-10.144,8.116-10.144c2.428,0,3.804,0.616,4.964,1.631v-5.181c0-1.738,0.725-2.68,2.5-2.68h0.109
					c1.848,0,2.68,1.123,2.68,3.767v19.275c0,1.812-0.688,2.682-2.463,2.682h-0.108c-2.735,0-2.718-3.297-2.718-5.254V-79
					c-0.833-0.616-1.884-0.942-3.333-0.942c-2.173,0-4.383,1.087-4.383,5.833C124.691-69.761,125.924-68.095,128.46-68.095z"/>
			</g>
			<g>
				<path fill="#0096FF" d="M146.045-74.617c0.002,3.188,0.178,6.45,5.02,6.45c3.188,0,3.949-1.558,5.181-1.558
					c0.979,0,1.594,0.651,1.594,1.812v0.108c0,1.015-0.543,1.739-1.63,2.283c-1.376,0.688-3.261,1.087-5.943,1.087
					c-6.231,0-9.636-3.696-9.636-9.674c0-6.123,3.985-9.891,9.275-9.891c5.87,0,8.514,3.623,8.514,8.587
					c0,1.522-0.833,2.392-2.536,2.392h-6.703c-0.945,0-1.71-0.767-1.71-1.711v-0.051c0-0.789,0.639-1.427,1.425-1.427h4.308
					c-0.108-3.37-1.231-4.456-3.296-4.456C146.594-80.667,146.043-77.416,146.045-74.617z"/>
			</g>
			<g>
				<path fill="#0096FF" d="M222.883-74.617c0.001,3.188,0.176,6.45,5.018,6.45c3.19,0,3.95-1.558,5.183-1.558
					c0.978,0,1.595,0.651,1.595,1.812v0.108c0,1.015-0.545,1.739-1.631,2.283c-1.377,0.688-3.262,1.087-5.942,1.087
					c-6.231,0-9.638-3.696-9.638-9.674c0-6.123,3.985-9.891,9.275-9.891c5.869,0,8.514,3.623,8.514,8.587
					c0,1.522-0.832,2.392-2.535,2.392h-6.703c-0.945,0-1.713-0.767-1.713-1.711v-0.051c0-0.789,0.641-1.427,1.428-1.427h4.308
					c-0.108-3.37-1.232-4.456-3.296-4.456C223.431-80.667,222.881-77.416,222.883-74.617z"/>
			</g>
		</g>
	</g>
	<g>
		<g>
			<path fill="#FFBE00" d="M304.741-98.245c0.536,0.174,1.122,0.113,1.614-0.164c0.489-0.279,0.84-0.752,0.965-1.302l1.404-6.218
				c0.161-0.714-0.25-1.435-0.946-1.661c-0.695-0.226-1.45,0.115-1.741,0.788l-2.518,5.855c-0.224,0.519-0.217,1.106,0.016,1.621
				C303.767-98.812,304.205-98.419,304.741-98.245z"/>
			<path fill="#FFBE00" d="M312.462-122.127c-0.954-0.311-1.595-1.208-1.249-2.513c0,0,1.676-8.406,2.093-9.689
				c0.56-1.724,1.835-2.525,3.704-1.918l0.146,0.048c1.869,0.606,2.429,2.004,1.867,3.728c-0.416,1.283-3.999,9.07-3.999,9.07
				c-0.491,1.259-1.536,1.609-2.489,1.299L312.462-122.127z"/>
		</g>
		<g>
			<path fill="#FFBE00" d="M327.064-105.499c0.332-0.457,0.457-1.031,0.344-1.584c-0.114-0.552-0.457-1.031-0.94-1.321l-5.479-3.256
				c-0.63-0.374-1.443-0.206-1.873,0.386c-0.43,0.593-0.338,1.416,0.213,1.899l4.79,4.205c0.424,0.372,0.985,0.549,1.547,0.486
				C326.226-104.746,326.734-105.043,327.064-105.499z"/>
			<path fill="#FFBE00" d="M306.738-120.221c-0.59,0.813-1.641,1.144-2.776,0.414c0,0-7.477-4.194-8.568-4.985
				c-1.466-1.064-1.835-2.525-0.68-4.115l0.091-0.125c1.155-1.59,2.658-1.69,4.123-0.624c1.092,0.792,7.391,6.606,7.391,6.606
				c1.045,0.856,1.055,1.959,0.465,2.769L306.738-120.221z"/>
		</g>
		<g>
			<path fill="#FFBE00" d="M327.064-128.971c-0.331-0.457-0.84-0.752-1.4-0.814c-0.561-0.063-1.121,0.114-1.546,0.486l-4.792,4.204
				c-0.55,0.484-0.641,1.307-0.211,1.9c0.43,0.592,1.243,0.759,1.873,0.385l5.479-3.256c0.485-0.289,0.826-0.768,0.938-1.32
				C327.521-127.939,327.396-128.515,327.064-128.971z"/>
			<path fill="#FFBE00" d="M306.782-114.188c0.589,0.811,0.58,1.914-0.466,2.768c0,0-6.297,5.816-7.389,6.609
				c-1.465,1.064-2.969,0.964-4.123-0.626l-0.092-0.124c-1.156-1.591-0.787-3.051,0.68-4.116c1.092-0.794,8.567-4.986,8.567-4.986
				c1.138-0.731,2.187-0.399,2.776,0.412L306.782-114.188z"/>
		</g>
		<g>
			<path fill="#FFBE00" d="M304.74-136.224c-0.535,0.174-0.974,0.566-1.207,1.08c-0.232,0.513-0.237,1.102-0.016,1.622l2.518,5.855
				c0.291,0.674,1.046,1.015,1.743,0.788c0.695-0.226,1.104-0.946,0.943-1.66l-1.405-6.218c-0.125-0.55-0.473-1.023-0.966-1.303
				C305.864-136.341,305.277-136.398,304.74-136.224z"/>
			<path fill="#FFBE00" d="M312.494-112.344c0.954-0.309,1.999,0.039,2.49,1.299c0,0,3.584,7.787,4,9.07
				c0.561,1.723,0,3.12-1.868,3.728l-0.146,0.048c-1.871,0.606-3.145-0.195-3.705-1.918c-0.416-1.284-2.095-9.689-2.095-9.689
				c-0.344-1.307,0.298-2.205,1.251-2.513L312.494-112.344z"/>
		</g>
		<g>
			<path fill="#FFBE00" d="M290.943-117.234c0.002,0.564,0.238,1.102,0.654,1.481c0.418,0.382,0.977,0.569,1.537,0.517l6.348-0.587
				c0.73-0.066,1.289-0.679,1.287-1.412c0.002-0.732-0.557-1.345-1.287-1.412l-6.346-0.585c-0.562-0.051-1.121,0.136-1.539,0.516
				C291.182-118.337,290.945-117.799,290.943-117.234z"/>
			<path fill="#FFBE00" d="M316.043-117.272c0-1.005,0.656-1.89,2.004-1.968c0,0,8.515-1.002,9.863-1.002
				c1.812,0.001,2.969,0.964,2.967,2.931l0.003,0.153c-0.001,1.967-1.158,2.93-2.97,2.93c-1.35,0-9.861-1.001-9.861-1.001
				c-1.35-0.077-2.006-0.964-2.006-1.966V-117.272L316.043-117.272z"/>
		</g>
	</g>
</g>
</svg>
